<?xml version="1.0" standalone="no"?>
<!DOCTYPE svg PUBLIC "-//W3C//DTD SVG 20010904//EN"
 "http://www.w3.org/TR/2001/REC-SVG-20010904/DTD/svg10.dtd">
<svg version="1.0" xmlns="http://www.w3.org/2000/svg"
 width="682.000000pt" height="711.000000pt" viewBox="0 0 682.000000 711.000000"
 preserveAspectRatio="xMidYMid meet">

<g transform="translate(0.000000,711.000000) scale(0.100000,-0.100000)"
fill="#000000" stroke="none">
<path d="M3140 7069 c-126 -10 -355 -54 -495 -94 -135 -38 -263 -89 -428 -168
l-147 -71 -41 41 c-43 44 -131 95 -206 119 -37 12 -127 18 -402 24 -379 9
-397 8 -478 -41 -78 -48 -153 -171 -161 -265 -6 -71 26 -175 77 -245 71 -99
152 -146 275 -159 134 -15 176 -22 176 -32 0 -5 6 -6 13 -1 6 4 23 9 36 11
l23 3 -23 -38 c-13 -21 -39 -60 -57 -87 -95 -142 -267 -552 -321 -766 -53
-209 -65 -322 -66 -580 0 -224 2 -243 32 -401 66 -337 169 -603 350 -903 178
-293 497 -611 778 -773 539 -312 1112 -423 1690 -327 226 38 453 114 690 231
432 214 721 481 980 905 33 53 64 94 69 91 5 -4 6 -1 3 4 -4 6 16 59 44 118
85 180 213 603 211 698 -1 21 14 44 51 86 110 121 298 345 336 399 28 40 30
38 -106 186 -54 60 -118 134 -144 166 -25 31 -90 106 -145 166 -94 103 -102
114 -134 204 -54 154 -140 319 -231 445 -124 173 -165 223 -278 336 -248 248
-558 447 -883 568 -163 61 -361 113 -512 136 -134 20 -422 27 -576 14z m515
-274 c72 -8 155 -20 185 -26 134 -27 417 -133 547 -206 70 -38 84 -53 54 -53
-11 0 -30 -13 -43 -30 -28 -38 -50 -38 -146 1 -155 63 -370 130 -502 156 -124
25 -155 27 -380 27 -232 1 -254 -1 -420 -31 -108 -20 -228 -49 -315 -78 -129
-43 -332 -133 -397 -177 l-27 -19 -16 52 c-8 29 -15 58 -15 65 0 32 60 68 245
146 222 93 464 159 655 177 145 14 437 12 575 -4z m-2200 -93 c299 -8 313 -12
409 -106 64 -63 89 -125 147 -359 24 -94 48 -175 54 -179 5 -4 564 -8 1240 -8
1367 0 1292 4 1409 -67 34 -21 84 -60 111 -88 114 -115 140 -241 91 -455 -15
-63 -51 -231 -82 -372 -84 -395 -116 -484 -202 -580 -48 -54 -106 -91 -172
-113 -52 -17 -113 -18 -1105 -16 -1031 2 -1160 6 -1184 35 -12 14 -64 220 -86
341 -9 50 -25 126 -36 170 -10 44 -28 134 -40 200 -11 66 -29 155 -40 199 -20
76 -59 258 -119 556 -39 190 -108 477 -125 516 -8 19 -28 38 -52 50 -35 18
-58 19 -298 16 -259 -4 -260 -4 -295 20 -98 66 -106 183 -17 239 26 16 42 19
82 14 28 -4 167 -10 310 -13z m149 -758 c20 -42 36 -81 36 -88 0 -6 -19 -34
-41 -61 -52 -63 -110 -178 -138 -275 -12 -41 -29 -91 -38 -110 -9 -19 -29 -93
-45 -165 -16 -71 -36 -161 -45 -200 -12 -55 -16 -126 -16 -330 0 -239 2 -264
20 -305 12 -26 24 -71 28 -100 13 -97 36 -183 56 -208 10 -14 19 -35 19 -48 0
-12 4 -25 9 -28 4 -3 11 -23 15 -45 3 -22 17 -57 31 -77 14 -20 25 -43 25 -51
0 -16 44 -88 61 -98 8 -5 9 -1 4 16 -7 20 -6 21 6 9 8 -8 16 -28 17 -43 2 -28
30 -76 45 -77 5 0 5 5 2 10 -3 6 -1 10 4 10 6 0 11 -4 11 -10 0 -5 6 -10 13
-10 6 0 21 -13 32 -29 102 -150 242 -303 363 -399 258 -206 615 -368 937 -428
137 -25 462 -31 600 -10 263 39 532 132 790 274 39 21 63 27 111 27 34 0 65
-3 69 -7 33 -33 -165 -169 -377 -259 -246 -104 -348 -133 -623 -179 -142 -23
-339 -24 -475 -2 -122 21 -345 74 -385 92 -11 5 -56 21 -100 35 -122 41 -309
139 -567 298 -26 16 -78 53 -115 83 -74 59 -92 67 -68 31 8 -13 12 -27 8 -30
-3 -4 1 -7 10 -7 8 0 19 -10 23 -22 3 -13 15 -31 25 -41 24 -23 25 -44 2 -26
-231 174 -435 437 -574 739 -97 212 -158 416 -200 675 -38 239 8 659 105 943
74 217 160 408 228 509 34 51 63 93 64 93 1 0 18 -34 38 -76z m3864 -591 c108
-109 386 -413 405 -444 20 -30 18 -47 -3 -34 -6 4 -9 13 -6 20 3 8 -2 19 -10
26 -13 11 -31 -3 -116 -92 -55 -57 -148 -153 -207 -214 -135 -139 -151 -158
-128 -149 13 5 16 2 11 -10 -3 -9 -16 -16 -28 -16 -25 -1 -80 -46 -71 -60 4
-6 -3 -9 -16 -7 -25 4 -48 41 -49 77 0 33 17 57 132 186 106 119 218 263 218
280 0 6 -21 31 -47 55 -54 50 -251 279 -270 312 -36 64 5 127 82 127 43 0 50
-4 103 -57z m-140 -335 c33 -16 49 -58 36 -95 -9 -26 -13 -28 -62 -25 -33 3
-52 0 -52 -7 0 -6 -12 -11 -27 -10 -25 0 -26 1 -8 9 19 8 19 9 -2 9 -13 1 -23
-3 -23 -9 0 -5 -16 -10 -35 -10 -21 0 -35 -5 -36 -12 0 -9 -2 -9 -6 1 -4 10
-7 10 -13 1 -20 -32 -70 36 -70 95 0 21 31 57 60 69 25 10 209 -2 238 -16z
m-38 -138 c-8 -5 -19 -10 -25 -10 -5 0 -3 5 5 10 8 5 20 10 25 10 6 0 3 -5 -5
-10z m55 -520 c3 -5 -1 -10 -10 -10 -9 0 -13 5 -10 10 3 6 8 10 10 10 2 0 7
-4 10 -10z m-2777 -195 c134 -32 219 -102 286 -235 53 -106 64 -172 46 -272
-18 -101 -59 -175 -139 -251 -142 -133 -284 -163 -463 -96 -67 25 -161 105
-208 179 -87 136 -94 325 -17 475 27 54 100 129 158 163 83 50 220 64 337 37z
m1827 0 c123 -32 223 -114 288 -235 50 -92 63 -161 48 -252 -36 -226 -236
-407 -451 -408 -68 0 -188 37 -247 75 -54 36 -121 112 -153 175 -10 20 -26 75
-36 121 -21 107 -9 200 39 296 36 74 118 163 177 193 96 49 227 63 335 35z
m938 -20 c20 -4 37 -8 37 -9 0 -8 -38 -116 -67 -191 -40 -102 -83 -189 -142
-290 -37 -63 -41 -67 -42 -40 0 29 -1 29 -10 7 -5 -13 -18 -26 -29 -29 -11 -3
-18 -9 -15 -13 3 -5 1 -11 -5 -15 -5 -3 -10 0 -10 7 -1 8 -6 6 -15 -6 -8 -11
-21 -16 -30 -13 -9 4 -15 1 -15 -8 0 -19 -17 -28 -26 -14 -4 7 -3 9 4 5 6 -4
10 1 10 11 -1 10 11 38 27 63 36 57 102 198 170 365 78 191 76 187 99 181 12
-2 38 -8 59 -11z"/>
<path d="M2106 5792 c-4 -7 55 -282 85 -394 l10 -38 231 0 231 0 -7 198 c-4
110 -9 207 -10 218 -3 18 -16 19 -269 22 -146 1 -268 -1 -271 -6z"/>
<path d="M2908 5581 l3 -219 179 -7 c98 -4 184 -4 190 0 9 6 10 63 6 224 l-6
216 -188 3 -187 2 3 -219z"/>
<path d="M3534 5580 l-1 -220 195 0 195 0 -7 46 c-3 26 -6 125 -6 220 l0 174
-187 0 -188 0 -1 -220z"/>
<path d="M4165 5579 l0 -224 221 -3 222 -2 6 22 c70 254 76 310 33 356 -50 55
-84 63 -290 69 l-192 6 0 -224z"/>
<path d="M2247 5103 c-3 -5 10 -79 28 -166 18 -88 39 -197 46 -243 l12 -84
148 0 c81 0 154 3 163 6 14 5 16 30 16 178 0 94 -3 201 -6 237 l-7 66 -190 2
c-105 1 -194 4 -198 7 -4 2 -10 1 -12 -3z"/>
<path d="M3092 5103 l-193 -3 6 -63 c3 -34 7 -143 9 -242 l3 -180 187 -3 186
-2 0 250 c0 137 -1 249 -2 248 -2 -2 -90 -4 -196 -5z"/>
<path d="M3533 4861 l2 -238 180 -5 c99 -3 183 -3 186 1 4 3 9 113 11 244 l4
237 -193 0 -193 0 3 -239z"/>
<path d="M4170 4997 c0 -57 -3 -166 -7 -242 l-6 -138 119 5 c133 5 173 19 199
68 20 39 81 277 90 353 l7 57 -201 0 -201 0 0 -103z"/>
<path d="M2363 3891 c-68 -49 -88 -86 -88 -161 0 -54 4 -72 27 -105 54 -78
142 -112 221 -86 66 22 127 113 127 190 0 79 -57 161 -125 180 -70 19 -118 14
-162 -18z"/>
<path d="M4242 3920 c-87 -20 -142 -94 -142 -195 0 -118 73 -197 181 -197 125
1 215 118 188 244 -22 101 -128 170 -227 148z"/>
<path d="M399 4969 c-38 -14 -54 -55 -34 -85 27 -41 59 -55 116 -52 43 2 55 8
72 30 53 71 -52 144 -154 107z"/>
<path d="M6324 4966 c-50 -22 -58 -63 -19 -101 68 -69 198 12 142 89 -17 23
-84 30 -123 12z"/>
<path d="M4720 2152 c-55 -27 -83 -77 -77 -136 4 -42 10 -55 45 -87 67 -63
115 -64 182 -3 69 63 74 138 12 196 -55 52 -102 61 -162 30z"/>
<path d="M1238 2129 c-41 -33 -65 -91 -54 -132 9 -37 55 -88 94 -104 31 -13
38 -12 87 11 68 31 98 74 91 129 -13 111 -135 165 -218 96z"/>
<path d="M5447 1803 c-4 -3 -7 -15 -7 -26 0 -10 -43 -99 -95 -196 -52 -97
-117 -231 -144 -297 -26 -65 -66 -162 -88 -214 -22 -52 -61 -150 -87 -217 -26
-67 -52 -124 -59 -127 -7 -2 48 -5 121 -5 118 -1 133 1 138 17 19 57 70 174
80 183 8 6 69 7 169 3 157 -7 157 -7 167 -33 6 -14 19 -45 29 -68 11 -24 19
-56 19 -72 l0 -28 143 -5 c78 -3 143 -4 144 -3 2 1 -33 69 -76 151 -44 82 -97
194 -119 249 -62 154 -111 262 -221 484 -55 112 -102 206 -104 208 -2 1 -7 0
-10 -4z m62 -586 c33 -76 32 -77 -54 -77 -41 0 -75 4 -75 8 0 8 66 168 77 186
4 6 12 -7 19 -29 7 -22 21 -62 33 -88z"/>
<path d="M3610 1760 c0 -4 9 -19 20 -33 20 -25 20 -40 21 -499 l0 -473 -22
-18 c-12 -9 -20 -19 -18 -20 2 -1 73 -1 156 1 l153 3 -15 29 c-12 24 -15 78
-14 302 l0 273 27 -34 c15 -18 71 -86 125 -150 231 -276 335 -397 348 -407 8
-7 42 -15 76 -19 l62 -7 3 509 c2 279 7 515 11 524 7 14 -8 16 -132 15 -102
-1 -137 -4 -130 -12 5 -7 8 -129 7 -289 l-3 -277 -102 128 c-108 137 -225 267
-339 377 -65 62 -74 67 -115 67 -24 0 -61 4 -81 9 -21 5 -38 5 -38 1z"/>
<path d="M151 1704 l31 -54 -1 -442 c-1 -369 -4 -444 -16 -462 -8 -11 -15 -23
-15 -26 0 -3 111 -5 248 -4 238 1 250 2 325 26 226 75 367 260 367 482 0 69
-33 195 -67 257 -36 67 -137 160 -215 198 -103 51 -157 62 -343 67 -93 2 -209
6 -258 8 l-87 3 31 -53z m492 -201 c71 -20 145 -82 178 -151 35 -71 33 -178
-4 -254 -50 -102 -121 -138 -284 -146 l-113 -5 0 293 0 293 83 -7 c45 -4 108
-14 140 -23z"/>
<path d="M1180 1754 c0 -1 7 -18 15 -38 13 -31 15 -104 15 -493 -1 -425 -3
-459 -20 -482 l-18 -26 149 0 c129 0 148 2 142 15 -5 8 -8 241 -8 517 l0 502
-138 3 c-75 2 -137 2 -137 2z"/>
<path d="M2003 1749 c-108 -18 -190 -62 -282 -152 -113 -109 -153 -201 -155
-352 -1 -129 25 -213 95 -307 49 -66 140 -143 209 -178 83 -41 248 -56 308
-28 15 7 38 30 52 51 22 35 25 37 37 21 7 -10 13 -33 13 -51 0 -25 4 -33 18
-33 9 0 62 -1 117 -3 l100 -2 -7 135 c-7 128 -4 305 8 398 l5 42 -226 0 -226
0 8 -22 c4 -13 7 -65 6 -115 l-3 -93 43 5 c23 2 68 7 100 10 l59 5 -4 -57 -4
-57 -45 -14 c-55 -17 -161 -19 -216 -3 -157 44 -238 208 -183 371 26 78 75
140 138 177 42 25 56 28 143 28 93 0 97 -1 155 -37 l59 -37 40 47 c21 26 59
67 82 91 24 24 43 45 43 46 0 1 -44 22 -97 47 -156 73 -254 90 -390 67z"/>
<path d="M2590 1756 c0 -4 10 -21 23 -37 22 -31 22 -35 19 -288 -5 -393 12
-476 115 -591 77 -86 151 -120 288 -135 208 -22 429 135 463 330 5 28 10 192
11 365 1 173 4 323 7 332 5 15 -9 17 -136 20 -122 3 -139 1 -133 -12 11 -21
20 -627 10 -675 -22 -109 -153 -157 -275 -100 -46 21 -56 31 -76 77 -22 49
-24 74 -34 356 -7 192 -8 311 -2 327 l10 25 -108 0 c-59 0 -124 3 -144 6 -21
4 -38 4 -38 0z"/>
<path d="M4646 1735 c39 -54 39 -56 36 -520 -2 -247 -5 -461 -8 -475 l-5 -25
141 3 140 3 -12 22 c-10 17 -13 137 -13 514 l0 492 -147 3 c-146 3 -147 3
-132 -17z"/>
<path d="M6200 1746 c-116 -33 -206 -110 -235 -197 -33 -98 -8 -242 53 -312
30 -34 137 -84 240 -112 108 -29 165 -59 170 -89 12 -58 -41 -106 -116 -106
-54 0 -178 51 -210 87 -13 14 -24 24 -26 22 -1 -2 -18 -26 -36 -54 -19 -27
-49 -66 -69 -88 l-34 -38 34 -29 c120 -100 304 -145 444 -106 111 31 161 69
219 168 73 124 45 278 -65 358 -44 32 -75 44 -224 90 -160 49 -186 73 -154
144 11 23 71 56 104 56 45 0 122 -26 168 -57 47 -31 53 -33 62 -18 16 28 57
81 103 134 l43 50 -58 29 c-144 72 -307 99 -413 68z"/>
<path d="M2567 343 c-4 -3 -7 -41 -7 -84 0 -57 -4 -82 -16 -93 -20 -20 -27
-20 -53 2 -17 14 -21 29 -23 82 -2 70 -10 90 -39 90 -17 0 -19 -8 -19 -80 0
-126 27 -170 104 -170 52 0 84 33 96 99 16 88 13 139 -9 151 -23 12 -26 12
-34 3z"/>
<path d="M4400 332 c-41 -20 -80 -74 -80 -111 0 -58 73 -131 131 -131 27 0 90
37 96 56 6 17 -45 40 -59 26 -30 -30 -98 -1 -98 42 0 46 62 83 95 56 18 -15
47 -6 63 20 12 19 9 22 -30 40 -53 24 -74 25 -118 2z"/>
<path d="M1550 214 l0 -126 75 4 c69 3 77 6 110 38 45 44 59 91 40 136 -22 52
-67 74 -152 74 l-73 0 0 -126z m162 32 c6 -14 8 -32 4 -41 -6 -17 -85 -57 -98
-49 -4 3 -8 30 -8 60 l0 54 45 0 c38 0 47 -4 57 -24z"/>
<path d="M1900 253 c0 -131 7 -163 37 -163 l24 0 -3 123 -3 122 -27 3 -28 3 0
-88z"/>
<path d="M2116 310 c-18 -17 -37 -42 -40 -55 -10 -39 12 -105 45 -138 27 -26
35 -29 74 -24 61 6 92 29 105 77 6 22 8 45 5 50 -9 15 -125 13 -125 -2 0 -7
12 -25 28 -41 l27 -29 -30 7 c-69 16 -93 56 -62 100 11 14 23 17 65 13 46 -5
53 -3 68 19 8 14 14 26 12 28 -18 15 -55 25 -92 25 -36 0 -52 -6 -80 -30z"/>
<path d="M2746 298 c-3 -24 -8 -78 -11 -121 l-6 -78 38 3 38 3 6 65 c3 36 6
60 7 54 1 -5 20 -38 43 -73 32 -49 45 -62 62 -59 20 3 22 10 28 98 4 52 12
107 18 123 9 24 8 27 -11 27 -31 0 -47 -29 -48 -83 0 -46 -1 -47 -18 -30 -10
10 -35 39 -55 66 -52 64 -84 65 -91 5z"/>
<path d="M3085 328 c-3 -8 -7 -61 -8 -119 -2 -101 -1 -104 21 -107 17 -3 22 1
22 20 0 58 9 68 60 68 54 0 80 19 55 40 -9 8 -28 10 -55 5 -40 -7 -41 -6 -38
16 2 20 11 25 53 32 49 8 72 24 56 40 -5 5 -43 11 -84 14 -61 5 -78 3 -82 -9z"/>
<path d="M3326 273 c-4 -38 -9 -94 -13 -125 -5 -52 -4 -58 13 -58 39 0 47 16
55 115 4 53 11 105 14 116 5 16 1 19 -28 19 l-35 0 -6 -67z"/>
<path d="M3496 263 c-9 -117 -8 -163 7 -163 6 0 23 -3 35 -7 23 -6 24 -5 20
56 -1 33 -1 61 2 61 2 0 29 -24 60 -54 30 -29 67 -56 83 -60 l27 -6 0 125 0
125 -35 0 -34 0 -3 -67 -3 -67 -53 67 c-38 49 -59 67 -76 67 -22 0 -23 -5 -30
-77z"/>
<path d="M3822 333 c2 -5 20 -34 42 -65 32 -48 46 -60 87 -73 27 -9 49 -21 49
-26 0 -16 -27 -21 -49 -9 -26 14 -61 -3 -61 -29 0 -22 39 -41 86 -41 43 0 94
45 94 84 0 29 -37 62 -81 71 -42 10 -30 29 20 33 25 2 44 9 48 18 17 45 -81
62 -125 22 l-24 -23 -18 23 c-17 20 -77 33 -68 15z"/>
<path d="M4680 302 c-53 -52 -56 -103 -9 -157 66 -75 166 -58 215 37 22 43 17
75 -19 115 -30 32 -41 37 -90 41 -55 4 -58 3 -97 -36z m143 -54 c24 -28 21
-43 -10 -68 -46 -36 -106 -10 -101 44 5 55 71 69 111 24z"/>
<path d="M5017 320 c-3 -10 -4 -63 -3 -117 l1 -98 30 0 c30 0 30 1 33 58 l3
58 22 -32 c34 -50 42 -49 82 6 13 18 14 15 15 -37 0 -58 0 -58 30 -58 l30 0 0
120 0 120 -30 0 c-23 0 -35 -9 -61 -46 -17 -25 -34 -42 -38 -37 -4 4 -19 25
-35 46 -31 42 -70 51 -79 17z"/>
<path d="M1183 288 c-38 -42 -38 -65 0 -103 27 -27 43 -35 70 -35 86 0 118 90
48 137 -44 30 -91 30 -118 1z"/>
<path d="M5524 300 c-27 -11 -54 -53 -54 -84 0 -32 52 -70 97 -70 75 0 120 78
71 124 -39 37 -74 46 -114 30z"/>
<path d="M4170 155 c-10 -12 -10 -21 -2 -40 19 -41 72 -30 72 15 0 39 -45 55
-70 25z"/>
</g>
</svg>
